<svg width="18" height="16" viewBox="0 0 18 16" fill="none" xmlns="http://www.w3.org/2000/svg">
<path d="M8.05388 7.47029C8.11467 7.59188 8.05387 7.65267 7.87701 7.65267C7.63339 7.6463 7.39095 7.61668 7.15296 7.56424C6.19678 7.20498 5.49487 6.90099 4.99744 6.66333C4.74 7.29918 4.40787 7.90218 4.00807 8.45962C3.51656 9.21293 3.06816 9.9935 2.665 10.7976C2.33051 11.4036 2.14131 12.0791 2.1123 12.7707C2.11336 13.0414 2.16981 13.3091 2.27817 13.5572C2.38653 13.8052 2.54451 14.0285 2.74239 14.2133C2.91291 14.4036 3.12043 14.5572 3.35231 14.6645C3.58419 14.7719 3.83555 14.8309 4.09099 14.8378C4.34112 14.8366 4.58736 14.7759 4.8095 14.661C4.89887 14.6495 4.98487 14.6195 5.06197 14.5729C5.13907 14.5262 5.20555 14.464 5.25719 14.3901C5.33768 14.3174 5.42906 14.2577 5.52801 14.2133C5.63335 14.2175 5.73671 14.2432 5.83176 14.2889C5.9268 14.3345 6.01152 14.399 6.08072 14.4786C6.16516 14.5758 6.22567 14.6914 6.25735 14.8161C6.28902 14.9409 6.29099 15.0714 6.26312 15.1971C6.20232 15.6171 5.90386 15.8603 5.36221 15.9156C4.40034 15.934 3.46825 15.5817 2.75895 14.9318C2.29013 14.6116 1.90626 14.1821 1.64049 13.6804C1.37472 13.1788 1.23505 12.6199 1.2335 12.0522C1.32306 11.053 1.73198 10.1092 2.39972 9.36053H2.21731C2.04473 9.37186 1.87166 9.3477 1.70877 9.28954C1.54588 9.23137 1.39665 9.14043 1.27027 9.02234C1.1439 8.90425 1.04306 8.76151 0.973999 8.60294C0.904936 8.44436 0.869098 8.27332 0.868714 8.10036C0.852604 7.78786 0.900149 7.47534 1.00846 7.18176C1.11677 6.88818 1.28359 6.61967 1.49881 6.39251C1.74351 6.18083 2.02958 6.02238 2.33883 5.92723C2.64807 5.83207 2.97372 5.8023 3.2951 5.8398C3.8478 5.9006 4.25678 5.9614 4.55525 6.01667C4.88973 5.41061 5.07894 4.73515 5.10795 4.04351C5.13248 3.53956 5.00751 3.0396 4.74871 2.60648C4.6311 2.42354 4.46636 2.27568 4.27184 2.17842C4.07732 2.08116 3.86022 2.0381 3.6433 2.05377C3.43308 2.05591 3.22622 2.10698 3.03915 2.20291C2.85208 2.29885 2.68993 2.43701 2.56552 2.60648C2.50863 2.69595 2.42217 2.76265 2.32118 2.79497C2.2202 2.82728 2.11108 2.82317 2.01282 2.78335C1.68771 2.73886 1.37842 2.61552 1.11191 2.42409C0.885464 2.20583 0.729543 1.92477 0.664216 1.61713C0.661317 1.41644 0.69954 1.21728 0.776535 1.03192C0.85353 0.846564 0.967665 0.67894 1.11191 0.539367C1.27889 0.380351 1.47721 0.257913 1.6942 0.179876C1.91118 0.101838 2.14207 0.0699122 2.37209 0.0861446C2.82104 0.136565 3.25385 0.28312 3.64108 0.515837C4.0283 0.748553 4.36085 1.06197 4.61607 1.43475C5.30032 2.23153 5.65422 3.25968 5.6054 4.30882C5.58014 4.96197 5.42808 5.60396 5.15771 6.19906C6.16498 6.52013 7.1357 6.94622 8.05388 7.47029ZM4.37288 6.39251C4.04645 6.33319 3.71529 6.30359 3.38351 6.30407C3.15412 6.28976 2.92422 6.32204 2.70764 6.39898C2.49107 6.47593 2.29231 6.59593 2.12336 6.75176C1.99305 6.86502 1.8864 7.00291 1.80957 7.15752C1.73274 7.31213 1.68725 7.48041 1.67568 7.65267C1.67568 8.13353 1.88571 8.37118 2.30577 8.37118C2.90269 8.43382 3.50145 7.92535 4.10206 6.84573C4.18142 6.79878 4.24778 6.73271 4.29509 6.65354C4.34239 6.57439 4.36913 6.48465 4.37288 6.39251ZM8.79451 7.65267C7.54172 6.99311 6.85268 6.15485 6.7274 5.13787C6.66446 4.36625 6.88883 3.59856 7.35746 2.98231C7.69936 2.61931 8.12111 2.34092 8.58927 2.16919C9.05744 1.99747 9.55914 1.93715 10.0547 1.99298C11.5285 2.16985 12.6966 3.30657 13.5588 5.40316C14.0342 6.72597 14.6034 7.38554 15.2667 7.38185C15.4746 7.42976 15.6922 7.41248 15.89 7.33238C16.0878 7.25229 16.2561 7.11326 16.3721 6.93416C16.6029 6.65602 16.7299 6.30628 16.7313 5.94482C16.7442 5.67614 16.6843 5.40897 16.5578 5.17158C16.4313 4.93418 16.243 4.73538 16.0128 4.59622C15.7053 4.35658 15.3249 4.22977 14.9351 4.23696C14.9121 4.26318 14.8842 4.2845 14.8528 4.29969C14.8215 4.31488 14.7874 4.32363 14.7527 4.3254C14.7186 4.32422 14.6851 4.31569 14.6546 4.30043C14.6241 4.28517 14.5972 4.26354 14.5758 4.23696C14.4023 4.02755 14.2777 3.78208 14.211 3.51844C14.2119 3.40067 14.2364 3.28428 14.2829 3.17608C14.3294 3.06788 14.397 2.97006 14.4818 2.88836C14.6131 2.7676 14.7717 2.6804 14.9439 2.63421C15.1162 2.58801 15.2971 2.58418 15.4712 2.62306C15.7533 2.68604 16.0157 2.81722 16.2354 3.00512C16.4551 3.19301 16.6254 3.43189 16.7313 3.70084C17.2362 4.72831 17.4284 5.88139 17.2841 7.01707C17.2168 7.89691 16.9761 8.75474 16.5758 9.54113C16.1755 10.3275 15.6235 11.0269 14.9516 11.599C13.6589 12.7392 11.9994 13.3768 10.2758 13.3953C9.71175 13.4546 9.14156 13.3974 8.60058 13.2272C8.05959 13.057 7.55935 12.7775 7.13087 12.4059C6.83041 12.1309 6.58808 11.7984 6.41816 11.4282C6.24824 11.058 6.1542 10.6575 6.14154 10.2504C6.14154 8.93496 7.00927 8.18326 8.75029 8.0064L8.79451 7.65267Z" fill="#F0F7F7"/>
</svg>
